<?xml version="1.0" encoding="UTF-8" standalone="no" ?>
<!DOCTYPE svg PUBLIC "-//W3C//DTD SVG 1.1//EN" "http://www.w3.org/Graphics/SVG/1.1/DTD/svg11.dtd">
<svg xmlns="http://www.w3.org/2000/svg" xmlns:xlink="http://www.w3.org/1999/xlink" version="1.1" width="1280" height="1024" viewBox="0 0 1280 1024" xml:space="preserve">
<desc>Created with Fabric.js 4.4.0</desc>
<defs>
</defs>
<g transform="matrix(1 0 0 1 640 512)" id="background-logo"  >
<rect style="stroke: none; stroke-width: 0; stroke-dasharray: none; stroke-linecap: butt; stroke-dashoffset: 0; stroke-linejoin: miter; stroke-miterlimit: 4; fill: rgb(255,255,255); fill-opacity: 0; fill-rule: nonzero; opacity: 1;"  paint-order="stroke"  x="-640" y="-512" rx="0" ry="0" width="1280" height="1024" />
</g>
<g transform="matrix(1.9211538461538462 0 0 1.9211538461538462 640 401.6788470903432)" id="logo-logo"  >
<g style=""  paint-order="stroke"   >
		<g transform="matrix(0.5785430590654198 0 0 -0.57854305906542 -69.15564563201343 8.04519192132986)"  >
<path style="stroke: none; stroke-width: 1; stroke-dasharray: none; stroke-linecap: butt; stroke-dashoffset: 0; stroke-linejoin: miter; stroke-miterlimit: 4; fill: rgb(43,174,224); fill-rule: nonzero; opacity: 1;"  paint-order="stroke"  transform=" translate(0, -28.841)" d="M 0 0 C 3.59 0 6.5 2.91 6.5 6.5 L 6.5 51.182 C 6.5 54.771 3.59 57.682 0 57.682 C -3.59 57.682 -6.5 54.771 -6.5 51.182 L -6.5 6.5 C -6.5 2.91 -3.59 0 0 0" stroke-linecap="round" />
</g>
		<g transform="matrix(0.5785430590654198 0 0 -0.57854305906542 -59.883380295877544 88.79116922351321)"  >
<path style="stroke: none; stroke-width: 1; stroke-dasharray: none; stroke-linecap: butt; stroke-dashoffset: 0; stroke-linejoin: miter; stroke-miterlimit: 4; fill: rgb(43,174,224); fill-rule: nonzero; opacity: 1;"  paint-order="stroke"  transform=" translate(15.809704099151453, -6.31041620378263)" d="M 0 0 L -1.936 0 C -13.518 0 -23.514 8.624 -25.187 20.06 C -25.707 23.612 -29.008000000000003 26.073 -32.56 25.551 C -36.112 25.031 -38.57 21.729999999999997 -38.050000000000004 18.179 C -35.45 0.403 -19.924 -13 -1.936 -13 L 0 -13 C 3.59 -13 6.5 -10.09 6.5 -6.5 C 6.5 -2.91 3.59 0 0 0" stroke-linecap="round" />
</g>
		<g transform="matrix(0.5785430590654198 0 0 -0.57854305906542 -61.04241346289456 -30.97559136824202)"  >
<path style="stroke: none; stroke-width: 1; stroke-dasharray: none; stroke-linecap: butt; stroke-dashoffset: 0; stroke-linejoin: miter; stroke-miterlimit: 4; fill: rgb(43,174,224); fill-rule: nonzero; opacity: 1;"  paint-order="stroke"  transform=" translate(-13.74039587737779, -21.463465146749435)" d="M 0 0 C 3.59 0 6.5 2.941 6.5 6.531 C 6.5 18.66 15.953 28.945 28.02 29.948999999999998 C 31.597 30.246 34.256 33.388 33.958 36.964999999999996 C 33.661 40.543 30.511999999999997 43.202999999999996 26.942 42.903999999999996 C 8.189 41.346 -6.5 25.369 -6.5 6.531 L -6.5 6.47 C -6.5 2.88 -3.59 0 0 0" stroke-linecap="round" />
</g>
		<g transform="matrix(0.5785430590654198 0 0 -0.57854305906542 -69.15564563201343 51.31576348996393)"  >
<path style="stroke: none; stroke-width: 1; stroke-dasharray: none; stroke-linecap: butt; stroke-dashoffset: 0; stroke-linejoin: miter; stroke-miterlimit: 4; fill: rgb(43,174,224); fill-rule: nonzero; opacity: 1;"  paint-order="stroke"  transform=" translate(0, -28.8405)" d="M 0 0 C 3.59 0 6.5 2.91 6.5 6.5 L 6.5 51.181 C 6.5 54.771 3.59 57.681 0 57.681 C -3.59 57.681 -6.5 54.771 -6.5 51.181 L -6.5 6.5 C -6.5 2.91 -3.59 0 0 0" stroke-linecap="round" />
</g>
		<g transform="matrix(0.5785430590654198 0 0 -0.57854305906542 -1.1590331670170144 -68.06465271278557)"  >
<path style="stroke: none; stroke-width: 1; stroke-dasharray: none; stroke-linecap: butt; stroke-dashoffset: 0; stroke-linejoin: miter; stroke-miterlimit: 4; fill: rgb(43,174,224); fill-rule: nonzero; opacity: 1;"  paint-order="stroke"  transform=" translate(-59.74850000000001, -55.334)" d="M 0 0 L 44.681 0 C 48.271 0 51.181 2.91 51.181 6.5 C 51.181 10.09 48.271 13 44.681 13 L 14.112 13 C 14.101 13.412 14.085 13.824 14.085 14.239 L 14.085 49.355000000000004 C 14.085 75.787 35.588 97.29 62.02 97.29 C 88.452 97.29 109.956 75.787 109.956 49.355000000000004 L 109.956 14.239 C 109.956 13.824000000000002 109.94 13.412 109.929 13 L 74.815 13 C 71.225 13 68.315 10.09 68.315 6.5 C 68.315 2.91 71.225 0 74.815 0 L 119.497 0 C 123.086 0 125.997 2.91 125.997 6.5 C 125.997 8.68 124.92 10.604 123.274 11.783000000000001 C 123.309 12.598 123.333 13.416 123.333 14.239 L 123.333 49.355000000000004 C 123.333 83.16300000000001 95.828 110.668 62.019999999999996 110.668 C 28.211999999999996 110.668 0.7079999999999984 83.16300000000001 0.7079999999999984 49.355000000000004 L 0.7079999999999984 14.239 C 0.708 13.824 0.72 13.412 0.729 13 L 0 13 C -3.59 13 -6.5 10.09 -6.5 6.5 C -6.5 2.91 -3.59 0 0 0" stroke-linecap="round" />
</g>
		<g transform="matrix(0.5785430590654198 0 0 -0.57854305906542 69.15564563201343 5.7271255872958875)"  >
<path style="stroke: none; stroke-width: 1; stroke-dasharray: none; stroke-linecap: butt; stroke-dashoffset: 0; stroke-linejoin: miter; stroke-miterlimit: 4; fill: rgb(43,174,224); fill-rule: nonzero; opacity: 1;"  paint-order="stroke"  transform=" translate(0, 28.84)" d="M 0 0 C -3.59 0 -6.5 -2.91 -6.5 -6.5 L -6.5 -51.18 C -6.5 -54.769999999999996 -3.59 -57.68 0 -57.68 C 3.59 -57.68 6.5 -54.769999999999996 6.5 -51.18 L 6.5 -6.5 C 6.5 -2.91 3.59 0 0 0" stroke-linecap="round" />
</g>
		<g transform="matrix(0.5785430590654198 0 0 -0.57854305906542 23.180663340339663 96.13171261462074)"  >
<path style="stroke: none; stroke-width: 1; stroke-dasharray: none; stroke-linecap: butt; stroke-dashoffset: 0; stroke-linejoin: miter; stroke-miterlimit: 4; fill: rgb(43,174,224); fill-rule: nonzero; opacity: 1;"  paint-order="stroke"  transform=" translate(22.3405, 6.5)" d="M 0 0 L -44.681 0 C -48.271 0 -51.181 -2.91 -51.181 -6.5 C -51.181 -10.09 -48.271 -13 -44.681 -13 L 0 -13 C 3.59 -13 6.5 -10.09 6.5 -6.5 C 6.5 -2.91 3.59 0 0 0" stroke-linecap="round" />
</g>
		<g transform="matrix(0.5785430590654198 0 0 -0.57854305906542 61.04241346289456 87.6321360564962)"  >
<path style="stroke: none; stroke-width: 1; stroke-dasharray: none; stroke-linecap: butt; stroke-dashoffset: 0; stroke-linejoin: miter; stroke-miterlimit: 4; fill: rgb(43,174,224); fill-rule: nonzero; opacity: 1;"  paint-order="stroke"  transform=" translate(13.771296333268452, 21.512)" d="M 0 0 C -3.59 0 -6.5 -2.91 -6.5 -6.5 L -6.5 -6.623 C -6.5 -18.776 -15.974 -29.065 -28.067 -30.046 C -31.646 -30.336 -34.311 -33.472 -34.021 -37.05 C -33.745 -40.449 -30.901 -43.024 -27.549 -43.024 C -27.373 -43.024 -27.195 -43.018 -27.017 -43.003 C -8.223 -41.479 6.5 -25.499 6.5 -6.623 L 6.5 -6.5 C 6.5 -2.91 3.59 0 0 0" stroke-linecap="round" />
</g>
		<g transform="matrix(0.5785430590654198 0 0 -0.57854305906542 69.15564563201343 48.61135276692423)"  >
<path style="stroke: none; stroke-width: 1; stroke-dasharray: none; stroke-linecap: butt; stroke-dashoffset: 0; stroke-linejoin: miter; stroke-miterlimit: 4; fill: rgb(43,174,224); fill-rule: nonzero; opacity: 1;"  paint-order="stroke"  transform=" translate(0, 28.8405)" d="M 0 0 C -3.59 0 -6.5 -2.91 -6.5 -6.5 L -6.5 -51.181 C -6.5 -54.771 -3.59 -57.681 0 -57.681 C 3.59 -57.681 6.5 -54.771 6.5 -51.181 L 6.5 -6.5 C 6.5 -2.91 3.59 0 0 0" stroke-linecap="round" />
</g>
		<g transform="matrix(0.5785430590654198 0 0 -0.57854305906542 -20.476252617299963 96.13171261462074)"  >
<path style="stroke: none; stroke-width: 1; stroke-dasharray: none; stroke-linecap: butt; stroke-dashoffset: 0; stroke-linejoin: miter; stroke-miterlimit: 4; fill: rgb(43,174,224); fill-rule: nonzero; opacity: 1;"  paint-order="stroke"  transform=" translate(22.3405, 6.5)" d="M 0 0 L -44.681 0 C -48.271 0 -51.181 -2.91 -51.181 -6.5 C -51.181 -10.09 -48.271 -13 -44.681 -13 L 0 -13 C 3.59 -13 6.5 -10.09 6.5 -6.5 C 6.5 -2.91 3.59 0 0 0" stroke-linecap="round" />
</g>
		<g transform="matrix(0.5785430590654198 0 0 -0.57854305906542 59.88338029587749 -32.134624535259036)"  >
<path style="stroke: none; stroke-width: 1; stroke-dasharray: none; stroke-linecap: butt; stroke-dashoffset: 0; stroke-linejoin: miter; stroke-miterlimit: 4; fill: rgb(43,174,224); fill-rule: nonzero; opacity: 1;"  paint-order="stroke"  transform=" translate(-15.836027430665911, 6.280000000000001)" d="M 0 0 L 1.998 0 C 13.556999999999999 0 23.549 -8.604 25.241 -20.012 C 25.72 -23.240000000000002 28.494 -25.560000000000002 31.663 -25.560000000000002 C 31.979 -25.560000000000002 32.302 -25.536 32.625 -25.488000000000003 C 36.176 -24.961000000000002 38.627 -21.656000000000002 38.101 -18.105000000000004 C 35.47 -0.372 19.949 13 1.998 13 L 0 13 C -3.59 13 -6.5 10.09 -6.5 6.5 C -6.5 2.91 -3.59 0 0 0" stroke-linecap="round" />
</g>
		<g transform="matrix(0.5785430590654198 0 0 -0.57854305906542 18.544530672271833 -23.635047977134406)"  >
<path style="stroke: none; stroke-width: 1; stroke-dasharray: none; stroke-linecap: butt; stroke-dashoffset: 0; stroke-linejoin: miter; stroke-miterlimit: 4; fill: rgb(43,174,224); fill-rule: nonzero; opacity: 1;"  paint-order="stroke"  transform=" translate(22.5775, -6.5)" d="M 0 0 C 3.59 0 6.5 2.91 6.5 6.5 C 6.5 10.09 3.59 13 0 13 L -45.155 13 C -48.745000000000005 13 -51.655 10.09 -51.655 6.5 C -51.655 2.91 -48.745000000000005 0 -45.155 0 z" stroke-linecap="round" />
</g>
		<g transform="matrix(0.5785430590654198 0 0 -0.57854305906542 42.88422717962845 73.33739366328658)"  >
<path style="stroke: none; stroke-width: 1; stroke-dasharray: none; stroke-linecap: butt; stroke-dashoffset: 0; stroke-linejoin: miter; stroke-miterlimit: 4; fill: rgb(43,174,224); fill-rule: nonzero; opacity: 1;"  paint-order="stroke"  transform=" translate(-22.581, -11.392)" d="M 0 0 C 0 -3.59 2.91 -6.5 6.5 -6.5 L 15.923 -6.5 C 32.046 -6.5 45.162 6.616 45.162 22.738 L 45.162 22.831 C 45.162 26.421 42.251999999999995 29.284 38.662 29.284 C 35.072 29.284 32.162 26.328 32.162 22.738 C 32.162 13.784 24.877 6.5 15.923 6.5 L 6.5 6.5 C 2.91 6.5 0 3.59 0 0" stroke-linecap="round" />
</g>
		<g transform="matrix(0.5785430590654198 0 0 -0.57854305906542 3.090755112045258 79.90524827638288)"  >
<path style="stroke: none; stroke-width: 1; stroke-dasharray: none; stroke-linecap: butt; stroke-dashoffset: 0; stroke-linejoin: miter; stroke-miterlimit: 4; fill: rgb(43,174,224); fill-rule: nonzero; opacity: 1;"  paint-order="stroke"  transform=" translate(-22.5775, -6.5)" d="M 0 0 L 45.155 0 C 48.745000000000005 0 51.655 2.91 51.655 6.5 C 51.655 10.09 48.745000000000005 13 45.155 13 L 0 13 C -3.59 13 -6.5 10.09 -6.5 6.5 C -6.5 2.91 -3.59 0 0 0" stroke-linecap="round" />
</g>
		<g transform="matrix(0.5785430590654198 0 0 -0.57854305906542 52.542836904769956 35.86198792973752)"  >
<path style="stroke: none; stroke-width: 1; stroke-dasharray: none; stroke-linecap: butt; stroke-dashoffset: 0; stroke-linejoin: miter; stroke-miterlimit: 4; fill: rgb(43,174,224); fill-rule: nonzero; opacity: 1;"  paint-order="stroke"  transform=" translate(0, 29.0775)" d="M 0 0 C -3.59 0 -6.5 -2.91 -6.5 -6.5 L -6.5 -51.655 C -6.5 -55.245000000000005 -3.59 -58.155 0 -58.155 C 3.59 -58.155 6.5 -55.245000000000005 6.5 -51.655 L 6.5 -6.5 C 6.5 -2.91 3.59 0 0 0" stroke-linecap="round" />
</g>
		<g transform="matrix(0.5785430590654198 0 0 -0.57854305906542 50.22477057073604 -7.022239249890987)"  >
<path style="stroke: none; stroke-width: 1; stroke-dasharray: none; stroke-linecap: butt; stroke-dashoffset: 0; stroke-linejoin: miter; stroke-miterlimit: 4; fill: rgb(43,174,224); fill-rule: nonzero; opacity: 1;"  paint-order="stroke"  transform=" translate(-2.999546627930557, 5.200046617888582)" d="M 0 0 L 0 -26.812 C 0 -30.402 2.91 -33.313 6.5 -33.313 C 10.09 -33.313 13 -30.402 13 -26.812 L 13 0 C 13 8.041 9.804 15.535 3.9990000000000006 21.104 C 1.4070000000000005 23.588 -2.707 23.503999999999998 -5.190999999999999 20.912 C -7.677 18.322 -7.590999999999999 14.206999999999999 -5.000999999999999 11.722999999999999 C -1.776 8.629 0 4.467 0 0" stroke-linecap="round" />
</g>
		<g transform="matrix(0.5785430590654198 0 0 -0.57854305906542 -25.112385285368077 -23.635047977134406)"  >
<path style="stroke: none; stroke-width: 1; stroke-dasharray: none; stroke-linecap: butt; stroke-dashoffset: 0; stroke-linejoin: miter; stroke-miterlimit: 4; fill: rgb(43,174,224); fill-rule: nonzero; opacity: 1;"  paint-order="stroke"  transform=" translate(-22.5775, -6.5)" d="M 0 0 L 45.155 0 C 48.745000000000005 0 51.655 2.91 51.655 6.5 C 51.655 10.09 48.745000000000005 13 45.155 13 L 0 13 C -3.59 13 -6.5 10.09 -6.5 6.5 C -6.5 2.91 -3.59 0 0 0" stroke-linecap="round" />
</g>
		<g transform="matrix(0.5785430590654198 0 0 -0.57854305906542 -52.54283690477001 42.42984254283371)"  >
<path style="stroke: none; stroke-width: 1; stroke-dasharray: none; stroke-linecap: butt; stroke-dashoffset: 0; stroke-linejoin: miter; stroke-miterlimit: 4; fill: rgb(43,174,224); fill-rule: nonzero; opacity: 1;"  paint-order="stroke"  transform=" translate(0, 29.0775)" d="M 0 0 C -3.59 0 -6.5 -2.91 -6.5 -6.5 L -6.5 -51.655 C -6.5 -55.245000000000005 -3.59 -58.155 0 -58.155 C 3.59 -58.155 6.5 -55.245000000000005 6.5 -51.655 L 6.5 -6.5 C 6.5 -2.91 3.59 0 0 0" stroke-linecap="round" />
</g>
		<g transform="matrix(0.5785430590654198 0 0 -0.57854305906542 -52.1564925157644 -1.2270734148060285)"  >
<path style="stroke: none; stroke-width: 1; stroke-dasharray: none; stroke-linecap: butt; stroke-dashoffset: 0; stroke-linejoin: miter; stroke-miterlimit: 4; fill: rgb(43,174,224); fill-rule: nonzero; opacity: 1;"  paint-order="stroke"  transform=" translate(-5.5907443388866, 24.563919799711087)" d="M 0 0 C -0.988 -2.971 -1.488 -6.075 -1.488 -9.229 L -1.488 -47.08 C -1.488 -50.67 1.4220000000000002 -53.58 5.0120000000000005 -53.58 C 8.602 -53.58 11.512 -50.67 11.512 -47.08 L 11.512 -9.229 C 11.512 -7.470999999999999 11.789 -5.745999999999999 12.336 -4.1 C 13.468 -0.6929999999999996 11.625 2.9860000000000007 8.218 4.118 C 4.81 5.252 1.132 3.406 0 0" stroke-linecap="round" />
</g>
		<g transform="matrix(0.5785430590654198 0 0 -0.57854305906542 -39.02078328957185 76.42814877533195)"  >
<path style="stroke: none; stroke-width: 1; stroke-dasharray: none; stroke-linecap: butt; stroke-dashoffset: 0; stroke-linejoin: miter; stroke-miterlimit: 4; fill: rgb(43,174,224); fill-rule: nonzero; opacity: 1;"  paint-order="stroke"  transform=" translate(26.7659723731108, -6.106751624425364)" d="M 0 0 C 0 3.59 -2.91 6.5 -6.5 6.5 L -26.87 6.5 C -32.938 6.5 -38.456 9.844 -41.271 15.226 C -42.936 18.407 -46.864000000000004 19.635 -50.044 17.972 C -53.224999999999994 16.307000000000002 -54.45399999999999 12.379000000000001 -52.79 9.198000000000002 C -47.724 -0.484 -37.792 -6.5 -26.87 -6.5 L -6.5 -6.5 C -2.91 -6.5 0 -3.59 0 0" stroke-linecap="round" />
</g>
		<g transform="matrix(0.96896379460714 0 0 -0.9689637946071403 -1.8733381108061167 28.34156378030164)"  >
<path style="stroke: none; stroke-width: 1; stroke-dasharray: none; stroke-linecap: butt; stroke-dashoffset: 0; stroke-linejoin: miter; stroke-miterlimit: 4; fill: rgb(43,174,224); fill-rule: nonzero; opacity: 1;"  paint-order="stroke"  transform=" translate(-24.2685, 9.962000000000003)" d="M 0 0 C 0 -7.469 3.377 -14.148 8.686 -18.6 L 8.686 -44.194 L 39.852 -44.194 L 39.852 -18.6 C 45.16 -14.148000000000001 48.537 -7.469000000000001 48.537 0 C 48.537 13.403 37.672 24.27 24.269 24.27 C 10.865 24.27 0 13.403 0 0" stroke-linecap="round" />
</g>
</g>
</g>
<g transform="matrix(1.9211538461538462 0 0 1.9211538461538462 642.6613984375002 686.100235940708)" id="text-logo"  >
<g style=""  paint-order="stroke"   >
		<g transform="matrix(1 0 0 1 -5.684342e-14 0)" id="text-logo-path-0"  >
<path style="stroke: none; stroke-width: 0; stroke-dasharray: none; stroke-linecap: butt; stroke-dashoffset: 0; stroke-linejoin: miter; stroke-miterlimit: 4; fill: rgb(43,174,224); fill-rule: nonzero; opacity: 1;"  paint-order="stroke"  transform=" translate(-263.30999999999995, 16.835)" d="M 2.59 -27.29 L 2.59 -6.35 C 2.59 -1.78 4.75 0.51 9.04 0.51 L 15.59 0.51 C 19.88 0.51 22.04 -1.78 22.04 -6.35 L 22.04 -10.71 L 15.13 -10.71 L 15.13 -5.51 C 15.13 -4.98 14.68 -4.47 14.14 -4.47 L 10.87 -4.47 C 10.33 -4.47 9.88 -4.98 9.88 -5.51 L 9.88 -28.18 C 9.88 -28.72 10.33 -29.22 10.87 -29.22 L 14.14 -29.22 C 14.68 -29.22 15.13 -28.72 15.13 -28.18 L 15.13 -24.12 L 22.04 -24.12 L 22.04 -27.29 C 22.04 -31.89 19.88 -34.18 15.59 -34.18 L 9.04 -34.18 C 4.75 -34.15 2.59 -31.87 2.59 -27.29 Z M 47.02 0 L 54.31 0 L 54.31 -33.64 L 47.02 -33.64 Z M 80.29 0 L 87.58 0 L 87.58 -13.2 L 93.44 -13.2 C 97.73 -13.23 99.89 -15.51 99.89 -20.08 L 99.89 -26.79 C 99.89 -31.36 97.73 -33.64 93.44 -33.64 L 80.29 -33.64 Z M 91.64 -18.21 L 87.58 -18.21 L 87.58 -28.64 L 91.64 -28.64 C 92.17 -28.64 92.63 -28.13 92.63 -27.6 L 92.63 -19.25 C 92.63 -18.71 92.17 -18.21 91.64 -18.21 Z M 124.16 0 L 131.45 0 L 131.45 -13.2 L 137.22 -13.2 L 137.22 0 L 144.5 0 L 144.5 -33.64 L 137.22 -33.64 L 137.22 -19.55 L 131.45 -19.55 L 131.45 -33.64 L 124.16 -33.64 Z M 170.33 0 L 185.69 0 L 185.69 -6.04 L 177.61 -6.04 L 177.61 -14.09 L 185.15 -14.09 L 185.15 -19.8 L 177.61 -19.8 L 177.61 -27.73 L 185.69 -27.73 L 185.69 -33.64 L 170.33 -33.64 Z M 210.52 0 L 217.81 0 L 217.81 -13.79 L 221.29 -13.79 C 221.95 -13.79 222.28 -13.43 222.28 -12.75 L 222.28 0 L 229.56 0 L 229.56 -13.3 C 229.56 -15.51 228.7 -16.94 226.97 -17.57 C 228.93 -18.33 229.92 -20.11 229.92 -22.88 L 229.92 -26.79 C 229.92 -31.36 227.76 -33.64 223.47 -33.64 L 210.52 -33.64 Z M 221.67 -18.87 L 217.81 -18.87 L 217.81 -28.69 L 221.67 -28.69 C 222.2 -28.69 222.66 -28.21 222.66 -27.68 L 222.66 -19.91 C 222.66 -19.37 222.2 -18.87 221.67 -18.87 Z M 255.24 0 L 270.6 0 L 270.6 -6.04 L 262.52 -6.04 L 262.52 -14.09 L 270.06 -14.09 L 270.06 -19.8 L 262.52 -19.8 L 262.52 -27.73 L 270.6 -27.73 L 270.6 -33.64 L 255.24 -33.64 Z M 295.43 0 L 308.81 0 C 313.1 0 315.26 -2.29 315.26 -6.86 L 315.26 -26.79 C 315.26 -31.36 313.1 -33.64 308.81 -33.64 L 295.43 -33.64 Z M 306.98 -5 L 302.72 -5 L 302.72 -28.69 L 306.98 -28.69 C 307.52 -28.69 307.97 -28.21 307.97 -27.68 L 307.97 -6.04 C 307.97 -5.51 307.52 -5 306.98 -5 Z M 372.42 0 L 387.65 0 L 387.65 -6.14 L 379.7 -6.14 L 379.7 -33.64 L 372.42 -33.64 Z M 411.72 -27.29 L 411.72 -6.35 C 411.72 -1.78 413.88 0.51 418.17 0.51 L 425.1 0.51 C 429.4 0.51 431.55 -1.78 431.55 -6.35 L 431.55 -27.29 C 431.55 -31.87 429.4 -34.15 425.1 -34.18 L 418.17 -34.18 C 413.88 -34.15 411.72 -31.87 411.72 -27.29 Z M 419.01 -5.51 L 419.01 -28.18 C 419.01 -28.72 419.47 -29.22 420 -29.22 L 423.28 -29.22 C 423.81 -29.22 424.27 -28.72 424.27 -28.18 L 424.27 -5.51 C 424.27 -4.98 423.81 -4.47 423.28 -4.47 L 420 -4.47 C 419.47 -4.47 419.01 -4.98 419.01 -5.51 Z M 457.53 -27.29 L 457.53 -6.35 C 457.53 -1.78 459.69 0.51 463.98 0.51 L 470.53 0.51 C 474.82 0.51 476.98 -1.78 476.98 -6.35 L 476.98 -10.71 L 470.07 -10.71 L 470.07 -5.51 C 470.07 -4.98 469.62 -4.47 469.08 -4.47 L 465.81 -4.47 C 465.27 -4.47 464.82 -4.98 464.82 -5.51 L 464.82 -28.18 C 464.82 -28.72 465.27 -29.22 465.81 -29.22 L 469.08 -29.22 C 469.62 -29.22 470.07 -28.72 470.07 -28.18 L 470.07 -24.12 L 476.98 -24.12 L 476.98 -27.29 C 476.98 -31.89 474.82 -34.18 470.53 -34.18 L 463.98 -34.18 C 459.69 -34.15 457.53 -31.87 457.53 -27.29 Z M 501.96 0 L 509.25 0 L 509.25 -13.3 L 511.59 -13.3 L 516.59 0 L 524.03 0 L 517.2 -18.21 L 522.94 -33.64 L 516.28 -33.64 L 511.03 -19.55 L 509.25 -19.55 L 509.25 -33.64 L 501.96 -33.64 Z" stroke-linecap="round" />
</g>
</g>
</g>
</svg>